<svg width="456" height="96" viewBox="0 0 456 96" fill="none" xmlns="http://www.w3.org/2000/svg">
<path d="M0 0H31.375C53.125 0 64 8.72917 64 26.1875C64 35.1458 60.75 42 54.25 46.75C48.4583 50.9583 40.5208 53.0625 30.4375 53.0625H11V94.3125H0V0ZM11 8.9375V44.375H29.9375C44.9792 44.375 52.5 38.3542 52.5 26.3125C52.5 14.7292 45.2292 8.9375 30.6875 8.9375H11ZM112.312 27.5L111.562 37.625C107.062 37.625 102.979 39.4583 99.3125 43.125C95.8958 46.4583 93.2708 51.0208 91.4375 56.8125V94.3125H81.0625V28.9375H91.0625V45.5625C95.7292 33.5208 102.812 27.5 112.312 27.5ZM179.812 63.125H134C134 71.5417 135.979 77.9792 139.938 82.4375C143.271 86.1875 147.688 88.0625 153.188 88.0625C161.812 88.0625 167.354 83.625 169.812 74.75L179.438 77.9375C175.146 89.8958 166.354 95.875 153.062 95.875C143.521 95.875 136.125 92.4583 130.875 85.625C126.208 79.5833 123.875 71.6458 123.875 61.8125C123.875 50.8125 126.896 42.0833 132.938 35.625C138.104 30.125 144.521 27.375 152.188 27.375C160.938 27.375 167.854 30.7083 172.938 37.375C177.521 43.375 179.812 51.1875 179.812 60.8125V63.125ZM169.688 55.6875C169.146 48.6875 167.167 43.4167 163.75 39.875C160.792 36.8333 156.979 35.3125 152.312 35.3125C146.896 35.3125 142.521 37.3958 139.188 41.5625C136.312 45.1875 134.667 49.8958 134.25 55.6875H169.688ZM209.062 28.9375V40.8125C215.979 31.9375 223.604 27.5 231.938 27.5C237.812 27.5 242.396 29.3542 245.688 33.0625C248.646 36.3542 250.125 40.7292 250.125 46.1875V94.3125H239.5V49.9375C239.5 41.0208 235.833 36.5625 228.5 36.5625C221.875 36.5625 215.521 40.8958 209.438 49.5625V94.3125H199.062V28.9375H209.062ZM325.188 63.125H279.375C279.375 71.5417 281.354 77.9792 285.312 82.4375C288.646 86.1875 293.062 88.0625 298.562 88.0625C307.188 88.0625 312.729 83.625 315.188 74.75L324.812 77.9375C320.521 89.8958 311.729 95.875 298.438 95.875C288.896 95.875 281.5 92.4583 276.25 85.625C271.583 79.5833 269.25 71.6458 269.25 61.8125C269.25 50.8125 272.271 42.0833 278.312 35.625C283.479 30.125 289.896 27.375 297.562 27.375C306.312 27.375 313.229 30.7083 318.312 37.375C322.896 43.375 325.188 51.1875 325.188 60.8125V63.125ZM315.062 55.6875C314.521 48.6875 312.542 43.4167 309.125 39.875C306.167 36.8333 302.354 35.3125 297.688 35.3125C292.271 35.3125 287.896 37.3958 284.562 41.5625C281.688 45.1875 280.042 49.8958 279.625 55.6875H315.062ZM388.625 43.125L378.625 46.3125C376.417 38.8125 371.688 35.0625 364.438 35.0625C359.979 35.0625 356.562 36.0417 354.188 38C352.146 39.6667 351.125 41.8125 351.125 44.4375C351.125 47.7708 352.167 50.2292 354.25 51.8125C356.167 53.2708 359.604 54.6042 364.562 55.8125L369.812 57.0625C377.771 58.9792 383.25 61.5208 386.25 64.6875C388.917 67.4792 390.25 71.3958 390.25 76.4375C390.25 82.6042 387.896 87.4375 383.188 90.9375C378.729 94.2292 372.688 95.875 365.062 95.875C351.646 95.875 342.979 90.5833 339.062 80L349.188 76.375C351.729 84.25 357.104 88.1875 365.312 88.1875C370.688 88.1875 374.646 86.9792 377.188 84.5625C379.146 82.7292 380.125 80.3542 380.125 77.4375C380.125 73.7708 379.083 71.1458 377 69.5625C375.125 68.1458 371.396 66.7083 365.812 65.25L360.562 64.125C352.896 62.1667 347.667 59.6042 344.875 56.4375C342.542 53.7292 341.375 49.9792 341.375 45.1875C341.375 39.5625 343.562 35.125 347.938 31.875C352.062 28.875 357.604 27.375 364.562 27.375C376.771 27.375 384.792 32.625 388.625 43.125ZM453.5 43.125L443.5 46.3125C441.292 38.8125 436.562 35.0625 429.312 35.0625C424.854 35.0625 421.438 36.0417 419.062 38C417.021 39.6667 416 41.8125 416 44.4375C416 47.7708 417.042 50.2292 419.125 51.8125C421.042 53.2708 424.479 54.6042 429.438 55.8125L434.688 57.0625C442.646 58.9792 448.125 61.5208 451.125 64.6875C453.792 67.4792 455.125 71.3958 455.125 76.4375C455.125 82.6042 452.771 87.4375 448.062 90.9375C443.604 94.2292 437.562 95.875 429.938 95.875C416.521 95.875 407.854 90.5833 403.938 80L414.062 76.375C416.604 84.25 421.979 88.1875 430.188 88.1875C435.562 88.1875 439.521 86.9792 442.062 84.5625C444.021 82.7292 445 80.3542 445 77.4375C445 73.7708 443.958 71.1458 441.875 69.5625C440 68.1458 436.271 66.7083 430.688 65.25L425.438 64.125C417.771 62.1667 412.542 59.6042 409.75 56.4375C407.417 53.7292 406.25 49.9792 406.25 45.1875C406.25 39.5625 408.438 35.125 412.812 31.875C416.938 28.875 422.479 27.375 429.438 27.375C441.646 27.375 449.667 32.625 453.5 43.125Z" fill="#F5853B"/>
</svg>
